<?xml version="1.0" encoding="UTF-8" standalone="no"?>
<!-- Created with Inkscape (http://www.inkscape.org/) -->

<svg
   width="400"
   height="120"
   viewBox="0 0 400 120"
   version="1.1"
   id="svg1"
   inkscape:version="1.4.2 (ebf0e940, 2025-05-08)"
   sodipodi:docname="logo.svg"
   xmlns:inkscape="http://www.inkscape.org/namespaces/inkscape"
   xmlns:sodipodi="http://sodipodi.sourceforge.net/DTD/sodipodi-0.dtd"
   xmlns="http://www.w3.org/2000/svg"
   xmlns:svg="http://www.w3.org/2000/svg"
   xmlns:rdf="http://www.w3.org/1999/02/22-rdf-syntax-ns#"
   xmlns:cc="http://creativecommons.org/ns#"
   xmlns:dc="http://purl.org/dc/elements/1.1/">
  <title
     id="title1">Logo Ta Cukrárna</title>
  <sodipodi:namedview
     id="namedview1"
     pagecolor="#ffffff"
     bordercolor="#000000"
     borderopacity="0.25"
     inkscape:showpageshadow="2"
     inkscape:pageopacity="0.0"
     inkscape:pagecheckerboard="0"
     inkscape:deskcolor="#d1d1d1"
     inkscape:document-units="mm"
     inkscape:zoom="1"
     inkscape:cx="200.5"
     inkscape:cy="60.5"
     inkscape:window-width="1728"
     inkscape:window-height="1008"
     inkscape:window-x="0"
     inkscape:window-y="34"
     inkscape:window-maximized="1"
     inkscape:current-layer="layer1" />
  <defs
     id="defs1" />
  <g
     inkscape:label="Base"
     inkscape:groupmode="layer"
     id="layer1">
    <path
       id="path0"
       d="M 77.692907,6.5255525 C 61.692126,8.6451749 50.315228,12.013582 29.108169,20.909636 12.637691,27.81941 5.6063688,32.258573 5.59275,35.757231 c 0,3.727772 2.3102569,3.125739 22.101059,-5.724476 3.636862,-1.625912 8.517556,-3.648608 10.846698,-4.495429 2.329523,-0.845742 4.235899,-1.689397 4.235899,-1.87379 0,-1.413406 -12.415737,2.838278 -27.467695,9.404362 -7.7918383,3.399685 -8.5617658,3.462167 -3.798721,0.309432 3.4474,-2.282084 7.525599,-4.29752 23.622454,-11.670768 6.463304,-2.960153 17.819006,-7.210791 18.216861,-6.81918 0.102022,0.102032 -0.77336,2.912228 -1.94758,6.24526 -2.916443,8.276335 -6.635776,20.236652 -8.651814,27.82762 -0.921584,3.468422 -2.050045,7.446196 -2.508385,8.839827 -0.456822,1.393594 -0.695839,2.748687 -0.530958,3.012208 0.181583,0.286344 0.124799,0.371986 -0.139826,0.211499 -0.973039,-0.591604 -5.367395,19.907524 -6.875932,32.081387 -1.904066,15.361077 -1.134123,22.581257 2.409733,22.581257 2.38134,0 5.605621,-7.64615 5.605621,-13.29251 0,-4.212139 -1.357259,-3.763226 -1.798596,0.59472 -0.447348,4.42354 -2.841184,10.59068 -3.633445,9.36058 -2.582158,-4.00797 6.312041,-54.420975 11.864342,-67.25414 0.387257,-0.894707 2.149536,-5.563022 3.916355,-10.375104 3.614527,-9.840732 7.100143,-19.194043 7.755901,-20.810534 0.374382,-0.921814 0.894726,-1.18429 3.593364,-1.810264 2.461502,-0.571835 2.9641,-0.803031 2.283778,-1.05095 -1.070584,-0.389525 -7.62052,0.90409 -10.552859,2.084175 -0.453817,0.183191 -2.613919,0.890573 -4.799361,1.57069 -5.512203,1.717545 -14.471839,5.072471 -20.612595,7.717011 -2.841547,1.223835 -5.981885,2.574758 -6.979504,3.000738 -0.998757,0.427059 -1.719176,0.870763 -1.601558,0.986383 0.117207,0.115414 3.600561,-1.271759 7.738881,-3.083031 4.13946,-1.81235 7.71998,-3.230969 7.957098,-3.153889 0.238258,0.07819 -1.5921,0.988467 -4.065339,2.023778 -2.473239,1.034267 -5.915341,2.537259 -7.651158,3.338207 -1.735026,0.802026 -3.443241,1.458198 -3.797582,1.458198 -0.3517,0 -0.757479,0.182459 -0.898159,0.406243 -0.139984,0.223792 -0.440942,0.407253 -0.668586,0.407253 -0.226916,0 -0.306335,-0.172038 -0.173991,-0.381223 0.147418,-0.235331 -0.264704,-0.238683 -1.083444,-0.0075 -0.726461,0.205159 -1.458601,0.591604 -1.626898,0.859295 -0.166383,0.267726 -0.701106,0.545766 -1.186684,0.618675 -1.071755,0.160491 -3.227697,1.209279 -4.343678,2.112326 -0.7722208,0.62493 -0.7858395,0.620761 -0.245802,-0.06368 0.814564,-1.033263 4.94534,-3.233054 12.170282,-6.480667 3.437958,-1.544659 6.902363,-3.103879 7.697661,-3.464251 0.795663,-0.360443 3.492038,-1.431127 5.99174,-2.377929 2.499322,-0.947805 7.054415,-2.67682 10.120981,-3.841302 17.699536,-6.7233332 43.857615,-9.8730143 50.001391,-6.0223279 0.435658,0.2729392 0.313864,0.3019839 -0.41372,0.095692 -4.072536,-1.1509295 -25.653218,-0.1988323 -26.518477,1.1707359 -0.155011,0.243896 -1.270659,0.433279 -2.479677,0.422852 -1.884042,-0.01477 -2.021321,0.02979 -0.95942,0.325069 1.237758,0.344809 8.057317,-0.695789 8.057317,-1.2290469 0,-0.1373905 0.883417,-0.266609 1.962337,-0.288579 1.080044,-0.022349 4.659805,-0.1820828 7.954821,-0.3570925 11.71762,-0.6259736 16.94206,1.2561184 16.94206,6.1046184 0,1.308212 -2.19378,6.384821 -3.363856,7.783666 -1.303163,1.557136 0.692074,0.624932 2.091297,-0.978042 C 105.51956,14.746609 102.50554,8.0180636 92.569482,6.6536255 89.781239,6.270317 80.24188,6.1880257 77.69452,6.5255291 m 92.46654,1.9675512 c -8.73649,2.3174957 -21.62606,13.5830987 -30.3796,26.5527337 -3.05826,4.529761 -10.12666,18.044158 -7.70408,14.728813 0.37058,-0.50827 0.40386,-0.485372 0.20055,0.134422 -0.1324,0.410376 -0.2496,0.959271 -0.2534,1.220706 -0.002,0.281132 -0.18916,0.227139 -0.45152,-0.135541 -0.38386,-0.524954 -0.4156,-0.516613 -0.23072,0.06144 0.12101,0.368636 -0.48744,2.291467 -1.3478,4.27149 -0.86108,1.981067 -1.89424,4.946394 -2.29852,6.589991 -0.51732,2.11024 -0.84634,2.827888 -1.11901,2.441454 -0.27983,-0.397868 -0.32899,-0.32507 -0.18157,0.265491 0.28364,1.123859 -1.1224,7.242032 -1.5728,6.836867 -0.20413,-0.184318 -0.24581,0 -0.0906,0.421848 0.15122,0.412424 0.13239,0.961358 -0.0378,1.220706 -0.17018,0.259161 -0.33659,1.020752 -0.36306,1.692564 -0.0378,0.670768 -0.17018,1.861278 -0.3101,2.644536 -0.99192,5.456787 -0.50674,13.59144 1.20598,20.242904 3.51512,13.646615 14.6288,19.385695 26.9409,13.914305 8.98798,-3.99441 21.20292,-15.903716 32.528,-31.715793 2.79164,-3.89753 0.52037,-1.229048 -3.80931,4.475656 -4.19089,5.522397 -8.67297,10.732308 -10.08205,11.71869 -0.41674,0.292685 -2.1601,1.835251 -3.87397,3.427799 -3.19667,2.970568 -8.05315,6.670198 -8.02971,6.116078 0,-0.16979 0.88834,-0.94989 1.95894,-1.73314 6.40204,-4.684995 16.52946,-16.049574 23.08505,-25.903858 2.10829,-3.169492 4.07365,-5.908831 4.36673,-6.086932 0.29498,-0.177991 0.18916,0.194738 -0.23071,0.829097 -0.42089,0.634315 -0.54683,1.019708 -0.27983,0.856168 0.35925,-0.217832 0.43262,0.177237 0.27983,1.475923 -0.11721,0.974876 -0.33279,2.779927 -0.48028,4.011062 -0.75748,6.300444 2.96525,7.927395 7.60464,3.324691 2.09998,-2.083131 7.09827,-8.343994 7.69163,-9.634518 0.26848,-0.583266 0.43904,0.257301 0.60695,2.990349 0.37063,6.065074 3.29311,7.954466 8.51981,5.51197 1.75928,-0.821798 7.72528,-7.000367 7.44732,-7.712804 -0.11341,-0.287463 0.0644,-0.742636 0.39142,-1.010325 0.45454,-0.370868 0.59522,-0.37288 0.59522,-0.0037 0,0.264749 0.18538,0.367518 0.41374,0.228999 0.2269,-0.138525 0.41258,-0.43432 0.41258,-0.658257 0,-0.223788 -0.18536,-0.294909 -0.40844,-0.158255 -0.24202,0.147834 -0.29874,-0.04802 -0.13982,-0.484328 0.14742,-0.404122 -0.18157,-0.187305 -0.7276,0.479115 -0.54684,0.666598 -0.94998,1.347796 -0.89588,1.513382 0.13239,0.401033 -1.54786,1.271759 -1.85986,0.964526 -0.13619,-0.132199 0.21932,-0.742636 0.78813,-1.355092 1.41662,-1.527981 3.77112,-4.57355 3.53625,-4.57355 -0.10582,0 -1.51796,1.635293 -3.13842,3.635089 -6.59984,8.137782 -12.03492,10.459446 -12.02432,5.137043 0.002,-1.794627 1.05584,-10.566759 1.45556,-12.135362 0.54154,-2.125841 -1.95058,-2.503937 -2.70506,-0.41038 -0.2231,0.6208 -0.59975,1.457157 -0.8346,1.858189 -0.23451,0.399953 -0.3101,0.911351 -0.1702,1.136331 0.13999,0.224907 0.0378,0.666599 -0.2269,0.983256 -0.26472,0.315389 -0.35926,0.772832 -0.20792,1.016579 0.29122,0.465561 -0.9496,2.660139 -1.30618,2.30811 -0.11341,-0.111326 0.10961,-0.677024 0.49388,-1.255113 1.17536,-1.766476 0.41902,-1.171743 -1.02068,0.803069 -0.74462,1.020749 -1.45332,1.757129 -1.57394,1.638383 -0.12101,-0.11989 0.27984,-0.863465 0.89058,-1.651937 0.61152,-0.789515 1.02068,-1.435261 0.90874,-1.435261 -0.49844,0 -3.99234,4.92662 -3.75748,5.299501 0.14362,0.229003 0.10961,0.370871 -0.0796,0.315389 -0.18917,-0.05511 -1.85228,1.422787 -3.69813,3.285146 -6.27614,6.325431 -6.81768,3.616324 -1.82166,-9.102303 2.98944,-7.61074 3.24244,-9.156445 1.49378,-9.156445 -0.6811,0 -1.26498,0.421846 -1.83337,1.322809 -0.45909,0.726996 -1.96119,2.787228 -3.33735,4.57664 -2.43278,3.163272 -2.94709,4.364209 -2.0932,4.883949 1.30622,0.794691 -9.06588,14.701742 -16.94244,22.718695 -18.20174,18.52432 -34.31786,21.59279 -40.94378,7.79513 -5.7327,-11.937453 -3.41678,-32.950065 5.5735,-50.576547 1.06,-2.076912 1.79818,-3.978815 1.64276,-4.227738 -0.15879,-0.249855 -0.0982,-0.338476 0.13239,-0.198102 0.22692,0.139629 0.61114,-0.167568 0.8494,-0.683242 0.34032,-0.735375 0.3101,-0.936374 -0.14742,-0.936374 -0.31766,0 -0.48974,0.08864 -0.37968,0.196972 0.10961,0.108359 -0.083,0.402074 -0.43076,0.650998 -0.3479,0.249855 -0.68106,1.000941 -0.74346,1.667541 -0.072,0.749931 -0.32146,1.16865 -0.65272,1.095742 -0.33658,-0.07409 -0.44852,0.118787 -0.29498,0.508273 0.13239,0.344805 0.10961,0.628058 -0.053,0.629102 -0.16259,10e-4 -0.76164,1.108253 -1.32964,2.461262 -0.56842,1.351928 -1.38602,2.770544 -1.81638,3.150724 -0.43148,0.381224 -0.70034,0.509352 -0.59862,0.285228 3.36988,-7.422253 5.76408,-12.023915 6.13506,-11.797893 0.22312,0.134422 0.30633,10e-4 0.19297,-0.297887 -0.11721,-0.297889 0.36303,-1.588377 1.06831,-2.868475 1.27671,-2.320623 1.82053,-2.965328 1.36445,-1.615485 -0.13998,0.408331 0.23072,0.191773 0.86452,-0.50827 l 1.10538,-1.22071 -1.12658,2.034167 c -1.1606,2.097725 -2.13174,3.368442 -1.71047,2.23833 0.71589,-1.917505 0.74879,-2.191451 0.14741,-1.220708 -0.34791,0.559322 -0.53397,1.383205 -0.41446,1.83108 0.15501,0.582222 0.10582,0.659301 -0.16638,0.270706 -0.3101,-0.438491 -0.43262,-0.414549 -0.64212,0.122875 -0.16639,0.42393 -0.0944,0.565577 0.19295,0.389562 0.30631,-0.186552 0.35926,0.03724 0.16259,0.69058 -0.15879,0.532214 0.78166,-0.681197 2.09354,-2.694547 12.03682,-18.485777 26.61378,-30.71799 36.6028,-30.71799 4.22566,0 5.7913,5.732817 3.64518,13.358117 -0.91933,3.265336 -0.83804,3.729895 0.65272,3.729895 4.38148,0 5.0584,-12.688431 0.92426,-17.324461 C 179.7961,8.0677014 174.88896,7.24069 170.16258,8.493719 M 40.713548,18.611524 c 0,0.246874 -3.83276,1.485269 -4.021825,1.299869 -0.09063,-0.0875 0.639845,-0.43849 1.619322,-0.780129 1.932822,-0.672855 2.402503,-0.774919 2.402503,-0.51974 M 239.72595,31.567605 c -1.19198,1.061337 -9.31926,16.560935 -9.26443,17.667107 0.0796,1.54775 -3.32145,10.393834 -3.86641,10.062583 -0.18917,-0.113565 -0.21932,0.107239 -0.0682,0.491626 0.20057,0.511436 0.1248,0.608287 -0.27606,0.363423 -0.41144,-0.249852 -0.48972,-0.113565 -0.31388,0.544725 0.12859,0.482244 0.0796,0.784302 -0.10582,0.669727 -0.18917,-0.113564 -0.57028,0.481201 -0.85052,1.321767 -0.27984,0.841571 -0.96696,2.170635 -1.52552,2.953895 l -1.01541,1.423794 1.11182,-1.220708 1.11258,-1.220708 -0.70869,1.424872 c -0.39027,0.782217 -1.05018,1.901904 -1.46806,2.486211 -0.41674,0.585351 -0.64025,1.180121 -0.49502,1.32281 0.14362,0.142612 0.0454,0.259535 -0.21931,0.259535 -0.26848,0 -0.481,0.585349 -0.481,1.321728 0.002,4.081923 -0.36684,4.715197 -4.67458,7.995091 -3.51625,2.676861 -3.0477,4.253766 1.01878,3.434055 1.10124,-0.223045 2.00244,-0.39057 2.00244,-0.372882 0,0.01859 -0.30634,1.313425 -0.68225,2.878901 -0.37437,1.566518 -0.67087,3.564267 -0.65725,4.440208 0,1.153051 -0.0868,1.434257 -0.37854,1.017623 -0.26852,-0.384351 -0.34794,0.873889 -0.23826,3.794447 0.19297,5.009918 1.95174,7.908635 3.40202,5.598445 0.13999,-0.22379 -0.0378,-0.407262 -0.39896,-0.407262 -2.17788,0 -1.7445,-15.751673 0.4939,-17.954593 1.24192,-1.222793 13.3551,-3.194477 19.73898,-3.212201 4.04646,-0.01104 4.80694,-0.104271 4.1319,-0.503057 -0.57744,-0.341828 -3.6588,-0.490585 -10.2261,-0.495798 -5.16924,-0.0037 -9.39982,-0.02979 -9.39982,-0.05735 -7.6e-4,-0.02606 3.15584,-2.650793 7.01354,-5.83071 11.67112,-9.618917 16.427,-15.163171 14.48888,-16.88906 -1.42458,-1.269674 -2.69296,-0.522868 -5.35226,3.147633 -3.96172,5.467177 -18.20326,17.939973 -19.27686,16.882804 -0.30256,-0.295655 1.51796,-4.965159 2.26068,-5.805726 0.39556,-0.446831 0.97,-1.637341 1.27672,-2.644538 1.14018,-3.752794 5.9354,-16.088075 6.71706,-17.27758 0.8717,-1.329029 0.82288,-1.107176 -0.44096,2.020649 -4.1765,10.332395 -6.40848,16.481809 -6.0942,16.791166 0.0834,0.08118 0.37437,-0.522867 0.64932,-1.343624 0.27606,-0.819713 1.22414,-3.032017 2.10718,-4.916231 0.88452,-1.884179 1.61136,-3.835049 1.6144,-4.333974 0,-0.49993 0.42204,-1.584205 0.92992,-2.409132 2.99472,-4.869352 3.73404,-6.299401 5.64342,-10.908363 1.15836,-2.797653 2.9418,-6.434829 3.96136,-8.083639 2.044,-3.301752 2.20358,-3.975651 1.13186,-4.776633 -0.9772,-0.731166 -1.13904,-0.707223 -2.325,0.348901 M 47.760783,36.720206 c -0.253379,0.466604 -0.298759,0.848868 -0.105819,0.848868 0.583883,0 0.245803,4.154832 -0.464398,5.696366 -0.630403,1.367566 -0.646299,1.375906 -0.408042,0.202946 0.543423,-2.678908 -0.279841,-0.516612 -1.862877,4.881862 -2.160103,7.375338 -5.042918,18.889899 -6.467464,25.836128 -0.6202,3.020548 -1.28124,6.042139 -1.471476,6.712907 -0.189176,0.671813 -0.867521,4.33293 -1.506639,8.13778 -0.639845,3.803798 -1.2196,6.35149 -1.287282,5.659906 -0.390279,-3.930889 6.87174,-36.309123 11.123139,-49.60163 0.501443,-1.566518 0.91404,-3.447608 0.915938,-4.180859 0.0016,-0.734331 0.132391,-1.130114 0.291182,-0.880147 0.158775,0.249852 0.287402,-0.259536 0.287402,-1.132199 0,-1.535242 0.792278,-3.648607 1.212435,-3.234059 0.113411,0.111327 -0.0011,0.58535 -0.253395,1.051991 m -0.638706,4.103782 c -0.15501,0.481199 -0.189176,0.966571 -0.07576,1.078019 0.11341,0.112461 0.332782,-0.190646 0.488963,-0.671811 0.15501,-0.481203 0.189176,-0.966573 0.07576,-1.078021 -0.113411,-0.111327 -0.332798,0.190645 -0.488583,0.671813 m 87.922059,4.576677 c -1.08536,2.07062 -2.02056,3.840261 -2.07768,3.932942 -0.0568,0.09383 -0.21171,0.06368 -0.34412,-0.06666 -0.2685,-0.264748 0.053,-0.926991 2.38094,-4.882869 2.32426,-3.953795 2.34734,-3.37887 0.0416,1.016579 m 156.16111,3.21842 c -1.7498,1.602973 -3.52872,3.232011 -3.95414,3.620493 -1.20372,1.100958 -0.4663,1.727976 1.10652,0.940545 4.15308,-2.076876 8.50506,-5.936945 7.73056,-6.855596 -0.88598,-1.050822 -1.59466,-0.717523 -4.88363,2.294684 m -223.110953,7.95238 c -2.14196,0.406246 -9.228516,8.47216 -9.394519,10.691725 -0.0378,0.376008 -0.4262,1.309255 -0.883418,2.074826 -1.17384,1.960215 -1.882902,4.126681 -1.47978,4.523542 0.18916,0.184318 0.958297,-1.046779 1.712739,-2.735171 0.753303,-1.689435 1.452179,-2.99035 1.552778,-2.891411 0.102022,0.09905 -0.109615,0.737421 -0.466297,1.417572 -0.815703,1.553004 -0.825146,1.927969 -0.0378,1.279059 0.509779,-0.416635 0.619821,-0.383309 0.619821,0.191773 0,0.38435 -0.336563,0.784302 -0.746882,0.890536 -0.93824,0.241662 -2.366598,2.940342 -3.031783,5.732817 -0.279873,1.174871 -0.647453,2.136231 -0.816494,2.136231 -0.166383,0 -0.117207,-0.595776 0.113411,-1.322772 0.741598,-2.342517 1.134882,-4.142321 0.946576,-4.327719 -0.791139,-0.779125 -2.107177,5.245324 -1.474497,6.749361 1.619701,3.848603 5.73042,1.091575 9.764741,-6.547316 1.444998,-2.736213 1.0706,-2.734129 -1.081941,0.0037 -4.092941,5.208908 -4.198838,4.806834 -0.173976,-0.659301 6.021982,-8.175276 6.870601,-9.246035 8.706985,-10.984398 1.517979,-1.438425 1.873459,-1.632128 1.649976,-0.906174 -0.192973,0.636399 -0.121004,0.891579 0.230696,0.8145 0.291214,-0.06367 0.676921,0.531209 0.886439,1.361349 0.89702,3.55384 2.942936,2.785139 2.553797,-0.960318 -0.219324,-2.108154 -0.147418,-2.673732 0.409164,-3.12682 1.138315,-0.930116 1.190117,-0.332143 0.6497,7.461799 -0.999881,14.404935 1.205617,19.045136 7.676513,16.151638 2.202445,-0.98534 9.470506,-9.828258 9.855881,-11.991593 0.0454,-0.255068 0.402727,-1.059292 0.793385,-1.786288 0.391417,-0.727033 0.6323,-1.32281 0.535102,-1.32281 -0.325205,0 -2.059503,3.043486 -2.089367,3.662163 0,0.335495 -0.249598,0.567662 -0.522258,0.515607 -0.272297,-0.05102 -0.912142,0.485371 -1.423819,1.192594 -0.512041,0.707224 -0.683359,1.136332 -0.381942,0.953018 0.355464,-0.215594 0.488583,-0.159362 0.380803,0.16049 -0.09063,0.271824 -0.283621,0.43432 -0.424301,0.362305 -0.519222,-0.268843 -2.031159,1.424875 -1.539159,1.724848 0.260939,0.159362 0.344123,0.495796 0.18916,0.747847 -0.158791,0.253204 -0.490861,0.336612 -0.737439,0.186552 -0.249582,-0.151176 -0.332798,-0.08526 -0.185379,0.1467 0.14378,0.231236 -0.477243,0.903047 -1.382583,1.492567 -0.905704,0.590565 -1.646164,0.966573 -1.646164,0.836396 0,-0.130334 -0.542679,0.142613 -1.204874,0.607207 -5.8382,4.093392 -7.50404,-0.350018 -5.394965,-14.391344 1.292961,-8.605464 -0.40086,-12.280135 -4.348597,-9.437688 -0.669376,0.482244 -0.948838,0.455173 -2.041361,-0.202194 -1.214681,-0.729117 -3.921638,-0.932204 -6.326056,-0.476024 m 63.109897,1.262412 c 0,0.562451 -0.0758,0.583264 -0.37437,0.114684 -0.41674,-0.647869 -1.26536,1.800844 -1.26841,3.664208 -0.002,0.580175 -0.40425,1.404059 -0.89397,1.831082 -1.04942,0.912432 -1.0449,0.878061 0.46022,-3.294457 0.48332,-1.34258 0.9636,-2.681028 1.06532,-2.974746 0.24957,-0.713479 1.01954,-0.209268 1.01235,0.659338 m 126.32534,-0.418719 c -1.70632,1.856064 -4.34784,9.414751 -3.88986,11.130214 0.2231,0.832224 -0.0906,1.716504 -1.4087,3.954834 -2.64152,4.492303 -4.55922,10.882337 -3.76167,12.530102 0.87887,1.8144 2.45925,2.479957 2.98717,1.256121 0.62399,-1.448817 2.53564,-8.516916 2.35148,-8.698146 -0.0906,-0.09049 -0.59222,1.308214 -1.11258,3.108052 -1.09823,3.796509 -1.61971,4.123553 -0.65386,0.409337 0.35926,-1.380078 0.65386,-2.976833 0.65386,-3.547587 0,-1.073886 1.58112,-3.984028 1.96193,-3.609061 0.11721,0.116549 -0.0868,0.668683 -0.45984,1.228005 -0.76807,1.153014 -0.8316,1.450903 -0.31009,1.450903 0.41673,0 2.29662,-4.299569 2.3696,-5.420298 0.10582,-1.647767 8.66164,-8.353415 11.57468,-9.073111 1.42912,-0.352997 1.19768,-0.967651 -0.36304,-0.965567 -2.19414,0.0037 -4.20374,0.728076 -6.75339,2.431028 -2.94895,1.970676 -2.87296,2.066486 -1.58453,-1.9623 1.40718,-4.401669 0.57786,-6.591071 -1.59929,-4.222526 m 25.94933,-0.245758 c -2.92362,1.078058 -8.88361,8.244052 -8.88361,10.681297 0,0.352253 -0.15501,0.639528 -0.34414,0.639528 -0.45153,0 -2.27847,3.857986 -2.26145,4.777677 0,0.392691 -0.17397,0.946799 -0.4001,1.230128 -0.97304,1.213411 -1.52326,5.045331 -0.92652,6.452517 1.56564,3.690273 4.2166,1.851896 10.04384,-6.96708 1.47902,-2.23833 3.44552,-4.98389 4.369,-6.103576 0.92462,-1.118646 1.24078,-1.667578 0.70339,-1.220747 -0.53735,0.447876 -1.99937,2.187318 -3.24847,3.865283 -2.68804,3.612154 -5.0554,6.145244 -5.49332,5.878635 -0.17397,-0.105374 -0.69622,0.335497 -1.16172,0.98009 -0.46631,0.644739 -1.34554,1.492567 -1.95252,1.884214 l -1.10539,0.713481 0.27606,-1.362392 c 0.85467,-4.207929 6.97613,-14.391379 10.57593,-17.594198 5.14652,-4.577682 7.50858,-2.578929 2.97244,2.516447 -1.32738,1.491524 -3.3128,3.993375 -4.4129,5.559893 -1.09934,1.566519 -2.63736,3.636134 -3.41788,4.599577 -0.7798,0.963446 -1.32778,1.840465 -1.2166,1.949827 0.19298,0.188411 2.06898,-2.231069 6.1831,-7.973234 1.04185,-1.454029 2.64644,-3.35906 3.56576,-4.232952 l 1.67152,-1.589418 0.43338,1.080105 c 0.23826,0.594733 0.60432,1.512377 0.81158,2.041464 0.95184,2.416467 2.11776,1.592584 1.84584,-1.304042 -0.2307,-2.456015 -0.16638,-2.7841 0.66746,-3.522563 l 0.92047,-0.813496 -0.35169,4.882907 c -0.19295,2.685162 -0.35548,5.797385 -0.35548,6.916028 -0.002,1.119687 -0.17777,2.159167 -0.39255,2.310197 -0.24203,0.17091 -0.20411,1.629 0.0944,3.842345 1.01728,7.48574 5.88775,9.252253 10.86145,3.939196 l 1.74866,-1.868575 -0.30255,1.381119 c -0.80172,3.66529 -0.77109,4.188157 0.32147,5.348469 1.715,1.821697 2.11132,1.491525 3.34263,-2.780971 0.61907,-2.144607 1.04415,-3.977774 0.94695,-4.073582 -0.0982,-0.09681 -0.50902,1.024885 -0.91178,2.492467 -1.34022,4.873524 -1.04828,1.587371 0.4073,-4.589153 0.33656,-1.424871 1.029,-1.075933 0.81004,0.407251 -0.11341,0.767621 0.0606,0.469733 0.41598,-0.712435 0.33657,-1.118646 0.61454,-2.451843 0.61869,-2.962236 0,-0.510357 0.28741,-1.034267 0.62853,-1.162396 0.34036,-0.1292 0.61981,-0.652004 0.61981,-1.161317 0,-1.589457 7.18675,-7.619083 11.01083,-9.238737 l 1.17838,-0.498925 -1.61328,-0.144851 c -2.22854,-0.201065 -3.00079,0.04879 -5.94598,1.923799 -1.4102,0.896793 -2.564,1.507127 -2.564,1.356099 0,-0.151177 0.47802,-1.820654 1.06304,-3.710047 1.15606,-3.728851 0.88758,-4.947475 -0.96056,-4.369385 -1.6216,0.506188 -5.4691,10.220911 -4.70293,11.874935 0.39861,0.862422 0.34793,1.217579 -0.31009,2.124798 -0.43376,0.599947 -1.46429,2.462267 -2.2902,4.139191 -0.82745,1.676923 -1.84473,3.324692 -2.26185,3.660077 -3.05599,2.459138 -3.97496,2.969533 -6.32151,3.508001 -2.91531,0.67077 -4.05132,0.06666 -4.05132,-2.15291 0,-0.560365 -0.18158,-0.886403 -0.41374,-0.74472 -0.60394,0.367521 -0.51507,-1.083232 0.4296,-6.961867 2.07238,-12.907115 2.05952,-13.856001 -0.21551,-14.876751 -0.8471,-0.380143 -1.29902,-0.326932 -2.46452,0.291558 -1.38678,0.735336 -1.44917,0.735336 -2.26902,0.0037 -1.01766,-0.906138 -4.26088,-1.20924 -6.0171,-0.561406 m 52.16264,0.02978 c -0.85506,0.639528 -2.70392,4.711026 -4.8459,10.671913 -1.80386,5.017253 -1.89576,5.542209 -1.17118,6.684794 0.38914,0.613501 0.29876,1.319682 -0.44852,3.554883 -1.56751,4.674572 -1.61742,6.73685 -0.18918,7.844063 l 1.18707,0.920735 0.34793,-1.361311 c 2.14119,-8.388825 6.20956,-15.625642 11.9154,-21.194919 4.65982,-4.546443 4.7434,-4.034 2.35486,14.38721 -0.6198,4.774548 0.6327,7.278483 3.63764,7.278483 1.91808,0 6.46028,-4.802662 8.76863,-9.269977 0.49505,-0.959274 1.07893,-1.635257 1.29791,-1.501951 0.21931,0.133303 0.39972,0.002 0.40273,-0.290441 0,-0.431192 0.072,-0.429108 0.35548,0.01104 0.27987,0.433278 0.40315,0.406209 0.61379,-0.134422 0.40502,-1.03948 0.3063,-1.712336 -0.14742,-1.018628 -0.22312,0.336613 -0.40088,0.428063 -0.40088,0.204053 0,-0.22379 0.18159,-0.682201 0.40088,-1.017586 0.29117,-0.44374 0.402,-0.464556 0.40614,-0.07709 0.002,0.292676 0.18159,0.424936 0.39897,0.293792 0.21551,-0.131438 0.0982,0.608249 -0.26094,1.64464 -0.46136,1.33424 -0.75445,1.722761 -1.00518,1.333198 -0.24957,-0.390607 -0.35548,-0.255067 -0.36303,0.467646 0,1.379073 -0.90346,4.391279 -1.12129,3.787163 -0.0982,-0.265495 0,-1.137374 0.23071,-1.936273 0.2231,-0.79994 0.24204,-1.353007 0.0416,-1.231135 -1.33722,0.813459 -0.6516,5.219296 0.88642,5.700498 1.61214,0.503096 6.52914,-4.298562 7.7211,-7.54096 0.1248,-0.335497 1.17842,-1.983152 2.34506,-3.662163 2.87638,-4.136062 3.04048,-4.417305 2.16768,-3.720472 -0.3797,0.303102 -1.54558,1.830038 -2.59162,3.392387 -1.04526,1.562347 -1.98992,2.7539 -2.0977,2.646624 -0.20057,-0.195867 2.50802,-4.739138 4.1697,-6.997278 4.16594,-5.659873 4.76986,-6.270246 4.76986,-4.809961 0,0.972829 0.95112,3.53407 1.44386,3.888183 1.21886,0.87702 1.5562,0.320975 1.27784,-2.107074 -0.19295,-1.684222 -0.1172,-2.672687 0.25338,-3.254912 1.10428,-1.74257 1.26914,-0.770784 0.90874,5.368242 -0.20033,3.413237 -0.31764,7.852402 -0.26092,9.866797 0.3101,10.898977 6.44668,11.718691 12.50686,1.670666 1.10122,-1.824825 1.12658,-1.928973 0.20792,-0.857209 -0.57558,0.671811 -1.04714,1.336324 -1.04828,1.476966 -0.001,0.140748 -1.0347,1.02384 -2.29778,1.9623 -7.75364,5.765102 -9.11088,3.287194 -7.15611,-13.058146 1.07059,-8.948147 0.072,-11.481238 -3.59035,-9.117906 -0.94772,0.612421 -1.08726,0.597861 -2.2244,-0.231234 -1.74036,-1.265505 -5.31368,-0.891579 -7.41632,0.777003 -1.64808,1.30717 -4.9771,5.346384 -4.93286,5.984869 0.0758,1.053033 -0.10962,1.447774 -0.5457,1.182169 -0.2912,-0.177991 -0.36682,-0.111327 -0.18916,0.170909 0.3706,0.588479 -0.48859,2.206047 -1.00404,1.892521 -0.21931,-0.133303 -0.26852,0.06776 -0.11341,0.462472 0.16638,0.43015 0.10961,0.598902 -0.15501,0.43849 -0.23823,-0.143747 -0.74271,0.502017 -1.14129,1.459243 -1.46316,3.513218 -4.16064,7.85862 -3.3385,5.379709 0.33656,-1.017623 0.0906,-0.74472 -2.61922,2.925744 -6.64106,8.989814 -9.0001,7.800347 -7.04192,-3.549672 1.46618,-8.503362 0.82516,-15.040254 -1.47562,-15.040254 -1.73808,0 -4.69802,2.832021 -11.07662,10.599006 -0.63344,0.771827 -0.96132,1.009279 -0.72988,0.52808 0.475,-0.98426 3.55218,-10.314672 3.9742,-12.047821 0.43262,-1.780068 -0.68525,-2.803908 -1.99372,-1.825868 M 73.59095,58.45186 c 0.38838,0.995728 -0.642139,2.776839 -3.064335,5.298462 -1.321322,1.375906 -4.184808,4.973501 -6.362721,7.994047 C 56.339156,82.597547 55.077213,82.39651 60.783053,71.2059 65.096852,62.746251 72.422029,55.451086 73.59095,58.45186 m 301.69562,0.910347 c 0.0796,0.238684 -0.9912,1.977938 -2.37794,3.865246 -3.64518,4.959948 -7.01544,10.437587 -6.79534,11.044832 0.10582,0.288579 -0.37892,1.164445 -1.07478,1.947703 -1.30544,1.468625 -1.24076,1.047821 0.13983,-0.915521 1.47562,-2.096684 0.4674,-1.125943 -1.7793,1.715463 -3.68866,4.664145 -4.38678,3.728813 -1.81407,-2.426858 3.96133,-9.477233 12.4664,-18.931567 13.70188,-15.230865 M 39.029044,64.595056 c -0.283606,1.249864 -0.596743,2.193535 -0.693941,2.097691 -0.09823,-0.09569 0.05299,-1.196728 0.340358,-2.445586 0.283638,-1.2499 0.595636,-2.193535 0.692802,-2.097728 0.09823,0.09569 -0.05678,1.196765 -0.340327,2.445623 m 31.253541,1.365482 c -1.456719,1.71859 -1.485459,1.791499 -0.276061,0.697841 1.147726,-1.03531 2.405541,-2.674737 2.019422,-2.630985 -0.06438,0.0075 -0.850501,0.876983 -1.74412,1.933144 m 57.055772,2.434155 c -1.67152,7.340967 -2.10188,10.98127 -2.1136,17.856675 0,3.839218 -0.13239,6.785803 -0.28363,6.548354 -1.11296,-1.773804 -0.21552,-15.224641 1.55617,-23.341606 0.54268,-2.488296 1.00896,-4.686001 1.03543,-4.88287 0.0378,-0.196973 0.13239,-0.03352 0.23825,0.361562 0.10582,0.394777 -0.0906,1.950869 -0.43376,3.458033 m 105.39395,1.983154 c -2.22667,2.148741 -4.15271,3.802764 -4.28089,3.676719 -0.1286,-0.125858 -0.9564,0.219693 -1.84056,0.769743 -2.7788,1.727975 -1.75509,0.689499 2.21495,-2.244588 2.10185,-1.553 4.64393,-3.567394 5.64873,-4.474574 3.4319,-3.100753 2.3125,-1.639427 -1.74223,2.2727 m 42.49089,-0.972829 c -0.7798,1.398807 -2.05876,4.431867 -2.84347,6.739978 -0.78583,2.307106 -1.52139,4.04651 -1.63634,3.864241 -0.23069,-0.365656 1.445,-5.835924 2.27962,-7.450367 1.04828,-2.026866 3.26323,-5.696325 3.43794,-5.696325 0.0982,0 -0.4591,1.14363 -1.23775,2.542473 m 88.45833,-1.512377 c 0.0492,0.331029 -0.072,0.503096 -0.26852,0.384351 -0.19677,-0.11989 -0.55098,0.142613 -0.79,0.581179 -0.54492,1.004105 -0.55212,1.379073 -0.0378,1.05512 0.52227,-0.317624 0.52227,0.220809 0,1.017621 -0.35548,0.542641 -0.402,0.542641 -0.41372,0 0,-0.534336 -0.0606,-0.535377 -0.39669,-0.01104 -0.94051,1.463412 -0.79113,-0.114699 0.18918,-2.022734 1.04412,-2.02791 1.50436,-2.299769 1.69798,-1.00407 M 37.638631,70.384682 c -0.336594,1.307171 -0.73932,3.2497 -0.894758,4.315206 -0.15501,1.065547 -0.419019,2.020649 -0.583883,2.12063 -0.166383,0.100913 -0.151215,-0.77075 0.0378,-1.937316 0.448487,-2.85805 1.750543,-7.79197 1.921861,-7.284741 0.07577,0.224907 -0.136188,1.478011 -0.47498,2.786221 m 30.144741,-1.662364 c -0.378542,0.373925 -0.58276,0.783261 -0.452678,0.91139 0.128595,0.126977 0.546095,-0.07299 0.924653,-0.44579 0.378542,-0.372881 0.582745,-0.783261 0.452646,-0.910347 -0.128595,-0.128096 -0.545684,0.07187 -0.924621,0.444747 M 335.88117,71.64393 c -1.53274,2.640369 -1.83111,2.982008 -2.33673,2.674737 -0.27227,-0.16757 -0.33657,-0.0075 -0.16259,0.432273 0.14742,0.384313 0.10202,0.595774 -0.10202,0.470774 -0.20411,-0.125112 -0.46627,0.0031 -0.58162,0.284484 -0.13983,0.340709 -0.21931,0.30012 -0.24203,-0.122875 0,-0.348901 0.24203,-0.989509 0.57443,-1.423829 0.46327,-0.604118 0.61152,-0.646827 0.62627,-0.180224 0,0.542637 0.0644,0.542637 0.41976,0 0.53852,-0.820758 0.51736,-1.332194 -0.0416,-0.991597 -0.30631,0.186552 -0.29497,-0.01476 0.0378,-0.62076 0.26848,-0.493712 0.59144,-0.796813 0.71624,-0.673897 0.1248,0.124009 0.5892,-0.22714 1.02902,-0.779091 1.26194,-1.57903 1.29182,-1.178035 0.0682,0.93012 M 66.103486,70.940936 c -0.534359,0.582222 -0.627381,0.950932 -0.31766,1.256119 0.3101,0.306079 0.521499,0.303102 0.717382,-0.01104 0.151214,-0.243896 0.166383,-0.442661 0.0378,-0.442661 -0.132391,0 -0.0454,-0.365658 0.196769,-0.813459 0.566104,-1.039478 0.332782,-1.036353 -0.628141,0.01103 m 134.463924,3.901701 c -2.76405,3.512173 -2.82115,3.573649 -3.08134,3.317392 -0.13239,-0.131065 0.83047,-1.532151 2.14121,-3.113227 2.80943,-3.386169 3.57524,-3.5528 0.94013,-0.204053 m 193.2699,-1.240479 c -0.13619,0.350018 -0.42318,0.53013 -0.63574,0.399952 -0.21551,-0.1292 -0.52262,-0.02235 -0.68674,0.240544 -0.20033,0.319856 -0.11721,0.366775 0.2496,0.143716 0.40806,-0.249109 0.47498,-0.13666 0.26472,0.44579 -0.20792,0.570753 -0.0606,0.506186 0.5404,-0.238685 0.45304,-0.55932 0.82744,-1.155096 0.8316,-1.322807 0,-0.522869 -0.30252,-0.334381 -0.5627,0.3314 M 216.33118,75.80197 c -0.92463,1.279021 -1.66205,1.890435 -1.66205,1.380077 0,-0.312409 2.09128,-2.58831 2.3783,-2.58831 0.0872,0 -0.2345,0.543682 -0.71625,1.208233 m 138.25436,3.430925 c -2.68804,3.710048 -3.13014,3.752756 -0.56802,0.05511 1.16552,-1.681094 2.20132,-2.975753 2.3008,-2.876818 0.10202,0.09793 -0.6792,1.368648 -1.73278,2.821633 m -2.92403,3.886099 c -0.1324,0.212618 -0.84293,0.779091 -1.57395,1.259247 -1.32548,0.867637 -1.32434,0.865551 0.11341,-0.377051 1.5263,-1.317595 1.85643,-1.517552 1.45861,-0.882196 m -130.58695,1.239475 c -0.15501,0.703054 -0.20031,1.363395 -0.0944,1.466503 0.10582,0.104271 0.3101,-0.395781 0.4557,-1.111346 0.14378,-0.714522 0.18916,-1.374865 0.0944,-1.46654 -0.0944,-0.09272 -0.29876,0.407251 -0.45458,1.111383 M 33.553173,108.66759 c -0.102023,0.39161 -0.189161,0.0718 -0.189161,-0.71138 0,-0.78327 0.08715,-1.1041 0.189161,-0.71245 0.102022,0.39161 0.102022,1.03219 0,1.42383"
       stroke="none"
       fill="#000000"
       fill-rule="evenodd"
       style="stroke-width:1.04967" />
  </g>
  <metadata
     id="metadata1">
    <rdf:RDF>
      <cc:Work
         rdf:about="">
        <dc:title>Logo Ta Cukrárna</dc:title>
        <dc:creator>
          <cc:Agent>
            <dc:title>Ma~</dc:title>
          </cc:Agent>
        </dc:creator>
        <dc:contributor>
          <cc:Agent>
            <dc:title>Jirka.3000</dc:title>
          </cc:Agent>
        </dc:contributor>
      </cc:Work>
    </rdf:RDF>
  </metadata>
</svg>
